<svg width="1400" height="836" viewBox="0 0 1400 836" fill="none" xmlns="http://www.w3.org/2000/svg">
<rect width="1400" height="836" fill="#F3F0F0"/>
<path d="M1166.18 466.697L706.629 561.596C698.416 563.292 694.31 564.14 690.147 564.124C685.985 564.109 681.885 563.23 673.685 561.472L673.685 561.472L233.234 467.071C202.935 460.577 187.786 457.33 178.893 446.329C170 435.328 170 419.834 170 388.847V368.505C170 338.029 170 322.791 178.675 311.866C187.351 300.941 202.193 297.489 231.877 290.585L672.352 188.138C681.21 186.078 685.64 185.048 690.148 185.029C694.657 185.011 699.094 186.006 707.969 187.994L1167.49 290.97C1197.46 297.685 1212.45 301.043 1221.22 312.004C1230 322.964 1230 338.321 1230 369.033V388.35C1230 419.559 1230 435.164 1221.01 446.197C1212.03 457.229 1196.74 460.385 1166.18 466.697Z" fill="#FF0000" stroke="white" stroke-width="30"/>
<path d="M419.205 327.909V421H402.205L361.705 362.409H361.023V421H341.341V327.909H358.614L398.795 386.455H399.614V327.909H419.205ZM451.511 421H430.42L462.557 327.909H487.92L520.011 421H498.92L475.602 349.182H474.875L451.511 421ZM450.193 384.409H500.011V399.773H450.193V384.409ZM588.716 327.909H608.398V388.364C608.398 395.152 606.777 401.091 603.534 406.182C600.322 411.273 595.822 415.242 590.034 418.091C584.246 420.909 577.504 422.318 569.807 422.318C562.08 422.318 555.322 420.909 549.534 418.091C543.746 415.242 539.246 411.273 536.034 406.182C532.822 401.091 531.216 395.152 531.216 388.364V327.909H550.898V386.682C550.898 390.227 551.67 393.379 553.216 396.136C554.792 398.894 557.004 401.061 559.852 402.636C562.701 404.212 566.019 405 569.807 405C573.625 405 576.943 404.212 579.761 402.636C582.61 401.061 584.807 398.894 586.352 396.136C587.928 393.379 588.716 390.227 588.716 386.682V327.909ZM624.591 421V327.909H644.273V404.773H684.182V421H624.591ZM715.636 421H694.545L726.682 327.909H752.045L784.136 421H763.045L739.727 349.182H739L715.636 421ZM714.318 384.409H764.136V399.773H714.318V384.409ZM795.341 421V327.909H815.023V368.955H816.25L849.75 327.909H873.341L838.795 369.591L873.75 421H850.205L824.705 382.727L815.023 394.545V421H795.341ZM883.591 421V327.909H903.273V366.318H943.227V327.909H962.864V421H943.227V382.545H903.273V421H883.591ZM995.136 421H974.045L1006.18 327.909H1031.55L1063.64 421H1042.55L1019.23 349.182H1018.5L995.136 421ZM993.818 384.409H1043.64V399.773H993.818V384.409Z" fill="white"/>
<path d="M1092.5 321C1092.5 329.993 1084.79 337.5 1075 337.5C1065.21 337.5 1057.5 329.993 1057.5 321C1057.5 312.007 1065.21 304.5 1075 304.5C1084.79 304.5 1092.5 312.007 1092.5 321Z" fill="#FF0101" stroke="white" stroke-width="5"/>
<path d="M1068.64 330V312.545H1075.53C1076.85 312.545 1077.97 312.781 1078.9 313.253C1079.84 313.719 1080.55 314.381 1081.04 315.239C1081.54 316.091 1081.78 317.094 1081.78 318.247C1081.78 319.406 1081.53 320.403 1081.03 321.239C1080.53 322.068 1079.81 322.705 1078.86 323.148C1077.92 323.591 1076.78 323.812 1075.43 323.812H1070.82V320.847H1074.84C1075.54 320.847 1076.13 320.75 1076.59 320.557C1077.06 320.364 1077.41 320.074 1077.63 319.688C1077.87 319.301 1077.98 318.821 1077.98 318.247C1077.98 317.668 1077.87 317.179 1077.63 316.781C1077.41 316.384 1077.06 316.082 1076.59 315.878C1076.12 315.668 1075.53 315.562 1074.82 315.562H1072.33V330H1068.64ZM1078.07 322.057L1082.41 330H1078.33L1074.09 322.057H1078.07Z" fill="#FFFEFE"/>
<path d="M669.06 457.705C668.984 456.871 668.647 456.223 668.048 455.761C667.457 455.292 666.613 455.057 665.514 455.057C664.787 455.057 664.181 455.152 663.696 455.341C663.211 455.53 662.848 455.792 662.605 456.125C662.363 456.451 662.238 456.826 662.23 457.25C662.215 457.598 662.283 457.905 662.435 458.17C662.594 458.436 662.821 458.67 663.116 458.875C663.42 459.072 663.783 459.246 664.207 459.398C664.632 459.549 665.109 459.682 665.639 459.795L667.639 460.25C668.791 460.5 669.806 460.833 670.685 461.25C671.571 461.667 672.313 462.163 672.912 462.739C673.518 463.314 673.976 463.977 674.287 464.727C674.598 465.477 674.757 466.318 674.764 467.25C674.757 468.72 674.385 469.981 673.651 471.034C672.916 472.087 671.859 472.894 670.48 473.455C669.109 474.015 667.454 474.295 665.514 474.295C663.567 474.295 661.87 474.004 660.423 473.42C658.976 472.837 657.851 471.951 657.048 470.761C656.245 469.572 655.832 468.068 655.81 466.25H661.196C661.241 467 661.442 467.625 661.798 468.125C662.154 468.625 662.643 469.004 663.264 469.261C663.893 469.519 664.62 469.648 665.446 469.648C666.204 469.648 666.848 469.545 667.378 469.341C667.916 469.136 668.329 468.852 668.616 468.489C668.904 468.125 669.052 467.708 669.06 467.239C669.052 466.799 668.916 466.424 668.651 466.114C668.385 465.795 667.976 465.523 667.423 465.295C666.878 465.061 666.181 464.845 665.332 464.648L662.901 464.08C660.885 463.617 659.298 462.871 658.139 461.841C656.98 460.803 656.404 459.402 656.412 457.636C656.404 456.197 656.791 454.936 657.571 453.852C658.351 452.769 659.431 451.924 660.81 451.318C662.188 450.712 663.76 450.409 665.526 450.409C667.329 450.409 668.893 450.716 670.219 451.33C671.552 451.936 672.586 452.788 673.321 453.886C674.056 454.985 674.431 456.258 674.446 457.705H669.06ZM699.571 462.364C699.571 464.924 699.079 467.095 698.094 468.875C697.109 470.655 695.776 472.008 694.094 472.932C692.42 473.856 690.541 474.318 688.457 474.318C686.366 474.318 684.484 473.852 682.81 472.92C681.135 471.989 679.806 470.636 678.821 468.864C677.844 467.083 677.355 464.917 677.355 462.364C677.355 459.803 677.844 457.633 678.821 455.852C679.806 454.072 681.135 452.72 682.81 451.795C684.484 450.871 686.366 450.409 688.457 450.409C690.541 450.409 692.42 450.871 694.094 451.795C695.776 452.72 697.109 454.072 698.094 455.852C699.079 457.633 699.571 459.803 699.571 462.364ZM693.821 462.364C693.821 460.848 693.605 459.568 693.173 458.523C692.749 457.477 692.135 456.686 691.332 456.148C690.537 455.61 689.579 455.341 688.457 455.341C687.344 455.341 686.385 455.61 685.582 456.148C684.779 456.686 684.162 457.477 683.73 458.523C683.306 459.568 683.094 460.848 683.094 462.364C683.094 463.879 683.306 465.159 683.73 466.205C684.162 467.25 684.779 468.042 685.582 468.58C686.385 469.117 687.344 469.386 688.457 469.386C689.579 469.386 690.537 469.117 691.332 468.58C692.135 468.042 692.749 467.25 693.173 466.205C693.605 465.159 693.821 463.879 693.821 462.364ZM706.514 474H700.469L708.321 450.727H715.81L723.662 474H717.616L712.151 456.591H711.969L706.514 474ZM705.707 464.841H718.344V469.114H705.707V464.841ZM726.168 474V450.727H735.781C737.524 450.727 739.027 451.068 740.293 451.75C741.565 452.424 742.546 453.367 743.236 454.58C743.925 455.784 744.27 457.186 744.27 458.784C744.27 460.39 743.918 461.795 743.213 463C742.516 464.197 741.52 465.125 740.224 465.784C738.929 466.443 737.391 466.773 735.611 466.773H729.679V462.341H734.565C735.414 462.341 736.122 462.193 736.69 461.898C737.266 461.602 737.702 461.189 737.997 460.659C738.293 460.121 738.44 459.496 738.44 458.784C738.44 458.064 738.293 457.443 737.997 456.92C737.702 456.39 737.266 455.981 736.69 455.693C736.115 455.405 735.406 455.261 734.565 455.261H731.793V474H726.168Z" fill="white"/>
</svg>
